# AST/ASF file generated using VICON BodyLanguage
# -----------------------------------------------
:version 1.10
:name VICON
:units
  mass 1.0
  length 0.45
  angle deg
:documentation
   .ast/.asf automatically generated from VICON data using
   VICON BodyBuilder and BodyLanguage model FoxedUp or BRILLIANT.MOD
:root
   order TX TY TZ RX RY RZ
   axis XYZ
   position 0 0 0  
   orientation 0 0 0 
:bonedata
  begin
     id 1 
     name lhipjoint
     direction 0.707368 -0.647095 0.284426 
     length 2.60678 
     axis 0 0 0  XYZ
  end
  begin
     id 2 
     name lfemur
     direction 0.34202 -0.939693 0  
     length 6.63812  
     axis 0 0 20  XYZ
    dof rx ry rz
    limits (-160.0 20.0)
           (-70.0 70.0)
           (-60.0 70.0)
  end
  begin
     id 3 
     name ltibia
     direction 0.34202 -0.939693 0   
     length 7.51178   
     axis 0 0 20   XYZ
    dof rx
    limits (-10.0 170.0)
  end
  begin
     id 4 
     name lfoot
     direction 0.121251 -0.333133 0.935051   
     length 1.83716   
     axis -90 7.62852e-016 20   XYZ
    dof rx rz
    limits (-45.0 90.0)
           (-70.0 20.0)
  end
  begin
     id 5 
     name ltoes
     direction 1.53611e-011 -4.21962e-011 1   
     length 0.916133   
     axis -90 7.62852e-016 20   XYZ
    dof rx
    limits (-90.0 20.0)
  end
  begin
     id 6 
     name rhipjoint
     direction -0.692419 -0.660507 0.290321   
     length 2.55385  
     axis 0 0 0  XYZ 
  end
  begin
     id 7 
     name rfemur
     direction -0.34202 -0.939693 0   
     length 7.29079   
     axis 0 0 -20   XYZ
    dof rx ry rz
    limits (-160.0 20.0)
           (-70.0 70.0)
           (-70.0 60.0)
  end
  begin
     id 8 
     name rtibia
     direction -0.34202 -0.939693 0   
     length 7.47143   
     axis 0 0 -20   XYZ
    dof rx
    limits (-10.0 170.0)
 end
 begin
     id 9 
     name rfoot
     direction -0.119907 -0.329441 0.936532   
     length 1.79439  
     axis -90 -7.62852e-016 -20   XYZ
    dof rx rz
    limits (-45.0 90.0)
           (-20.0 70.0)
  end
  begin
     id 10 
     name rtoes
     direction -1.53571e-011 -4.21961e-011 1   
     length 0.896039   
     axis -90 -7.62852e-016 -20   XYZ
    dof rx
    limits (-90.0 20.0)
  end
  begin
     id 11 
     name lowerback
     direction 0.0367721 0.992912 -0.113016   
     length 1.73542   
     axis 0 0 0   XYZ
    dof rx ry rz
    limits (-20.0 45.0)
           (-30.0 30.0)
           (-30.0 30.0)
  end
  begin
     id 12 
     name upperback
     direction -0.000314626 0.990678 0.136227   
     length 1.7514   
     axis 0 0 0   XYZ
    dof rx ry rz
    limits (-20.0 45.0)
           (-30.0 30.0)
           (-30.0 30.0)
  end
  begin
     id 13 
     name thorax
     direction -0.0226159 0.981151 0.191917   
     length 1.71471   
     axis 0 0 0   XYZ
    dof rx ry rz
    limits (-20.0 45.0)
           (-30.0 30.0)
           (-30.0 30.0)
  end
  begin
     id 14 
     name lowerneck
     direction 0.0219333 0.998071 0.0580739   
     length 1.65882   
     axis 0 0 0   XYZ
    dof rx ry rz
    limits (-20.0 45.0)
           (-30.0 30.0)
           (-30.0 30.0)
  end
  begin
     id 15 
     name upperneck
     direction 0.0384529 0.980058 -0.194957   
     length 1.6612   
     axis 0 0 0   XYZ
    dof rx ry rz
    limits (-20.0 45.0)
           (-30.0 30.0)
           (-30.0 30.0)
  end
  begin
     id 16
     name head
     direction 0.00592123 0.997421 -0.0715234  
     length 1.68077  
     axis 0 0 0   XYZ
    dof rx ry rz
    limits (-20.0 45.0)
           (-30.0 30.0)
           (-30.0 30.0)
  end
  begin
     id 17 
     name lclavicle
     direction 0.904803 0.417826 0.0821728  
     length 3.42227  
     axis 0 0 0   XYZ
    dof ry rz
    limits (-20.0 10.0)
           (0.0 20.0)
  end
  begin
     id 18 
     name lhumerus
     direction 1 -4.48965e-011 -2.68786e-027   
     length 5.11878   
     axis -180 -30 -90   XYZ
    dof rx ry rz
    limits (-60.0 90.0)
           (-90.0 90.0)
           (-90.0 90.0)
  end
  begin
     id 19
     name lradius
     direction 1 -4.48965e-011 2.61168e-028   
     length 3.59971   
     axis -180 -30 -90   XYZ
    dof rx
    limits (-10.0 170.0)
  end
  begin
     id 20
     name lwrist
     direction 1 -4.48965e-011 1.58672e-027   
     length 1.79985   
     axis -1.65735e-015 90 90   XYZ
    dof ry
    limits (-180.0 0.0)
 end
  begin
     id 21 
     name lhand
     direction 1 -4.48942e-011 3.17344e-027   
     length 0.62877   
     axis -2.02492e-015 90 90   XYZ
    dof rx rz
    limits (-90.0 90.0)
           (-45.0 45.0)
  end
  begin
     id 22 
     name lfingers
     direction 1 -4.49011e-011 6.34687e-027   
     length 0.506931   
     axis -4.04985e-015 90 90   XYZ
    dof rx
    limits (0.0 90.0)
  end
  begin
     id 23
     name lthumb
     direction 0.707107 -6.34982e-011 0.707107   
     length 0.727854   
     axis -90 45 2.85299e-015   XYZ
    dof rx rz
    limits (-45.0 45.0)
           (-45.0 45.0)
  end
  begin
     id 24 
     name rclavicle
     direction -0.945647 0.32488 0.0143075   
     length 3.52737  
     axis 0 0 0   XYZ 
    dof ry rz
    limits (-10.0 20.0)
           (-20.0 0.0)
  end
  begin
     id 25 
     name rhumerus
     direction -1 -4.48962e-011 1.92182e-027  
     length 5.4902   
     axis -180 30 90   XYZ
    dof rx ry rz
    limits (-90.0 60.0)
           (-90.0 90.0)
           (-90.0 90.0)
  end
  begin
     id 26 
     name rradius
     direction -1 -4.48967e-011 -5.97193e-028   
     length 3.20659   
     axis -180 30 90   XYZ
    dof rx
    limits (-10.0 170.0)
  end
  begin
     id 27 
     name rwrist
     direction -1 -4.48964e-011 1.58672e-027   
     length 1.6033   
     axis -1.65735e-015 -90 -90   XYZ
    dof ry
    limits (-180.0 0.0)
  end
  begin
     id 28
     name rhand
     direction -1 -4.49006e-011 3.17344e-027   
     length 0.691885   
     axis -2.02492e-015 -90 -90   XYZ
    dof rx rz
    limits (-90.0 90.0)
           (-45.0 45.0)
  end
  begin
     id 29
     name rfingers
     direction -1 -4.48908e-011 6.34687e-027   
     length 0.557815   
     axis -4.04985e-015 -90 -90   XYZ
    dof rx
    limits (0.0 90.0)
  end
  begin
     id 30
     name rthumb
     direction -0.707107 -6.34999e-011 0.707107   
     length 0.800915   
     axis -90 -45 -2.85299e-015   XYZ
    dof rx rz
    limits (-45.0 45.0)
           (-45.0 45.0)
  end
:hierarchy
  begin
    root lhipjoint rhipjoint lowerback
    lhipjoint lfemur
    lfemur ltibia
    ltibia lfoot
    lfoot ltoes
    rhipjoint rfemur
    rfemur rtibia
    rtibia rfoot
    rfoot rtoes
    lowerback upperback
    upperback thorax
    thorax lowerneck lclavicle rclavicle
    lowerneck upperneck
    upperneck head
    lclavicle lhumerus
    lhumerus lradius
    lradius lwrist
    lwrist lhand lthumb
    lhand lfingers
    rclavicle rhumerus
    rhumerus rradius
    rradius rwrist
    rwrist rhand rthumb
    rhand rfingers
  end

#!OML:ASF I:\Actors\actors\Patient Classification 1\Patient 1\Session 1\Subject1.ASF
:FULLY-SPECIFIED
:DEGREES
122
root 0.563378 17.4504 9.13357 10.4361 -3.48303 -8.93092
lowerback -1.50993 0.686667 6.90178
upperback -8.65258 1.3045 2.57542
thorax -8.1974 0.253814 -1.20055
lowerneck -9.58325 -5.33791 -5.30233
upperneck 20.2827 -8.27942 8.22065
head 8.43973 -3.57038 2.77308
rclavicle 9.30561e-015 2.0773e-014
rhumerus -48.5272 -13.6503 -75.7403
rradius 30.5378
rwrist 32.1566
rhand 4.57982 -30.5217
rfingers 7.12502
rthumb 29.9691 -58.1145
lclavicle 9.30561e-015 2.0773e-014
lhumerus -57.0195 7.23203 86.8896
lradius 53.0357
lwrist -8.44626
lhand -18.2223 -12.4527
lfingers 7.12502
lthumb 8.05575 17.3738
rfemur -5.1965 25.3424 25.0567
rtibia 1.96497
rfoot -11.328 -25.876
rtoes 2.33942
lfemur 6.43918 -50.3364 -13.3901
ltibia -4.71746
lfoot -38.2449 58.293
ltoes 21.6926
123
root 0.564706 17.4504 9.13699 10.3786 -3.40754 -8.89391
lowerback -1.58799 0.623088 6.94171
upperback -8.60182 1.20747 2.5452
thorax -8.10178 0.205308 -1.24914
lowerneck -9.73499 -5.13143 -5.05881
upperneck 20.4714 -8.0324 8.167
head 8.49992 -3.43228 2.7402
rclavicle -1.55176e-014 2.5842e-014
rhumerus -48.8175 -12.8873 -76.4412
rradius 31.6202
rwrist 30.7976
rhand 4.59047 -30.5133
rfingers 7.12502
rthumb 29.9793 -58.1043
lclavicle -1.55176e-014 2.5842e-014
lhumerus -58.0838 6.71718 87.7194
lradius 56.7344
lwrist -9.01072
lhand -18.9288 -13.2165
lfingers 7.12502
lthumb 7.37388 16.635
rfemur -5.20429 25.0952 25.0256
rtibia 2.08158
rfoot -11.3664 -25.682
rtoes 2.661
lfemur 6.4279 -50.1135 -13.3954
ltibia -4.75752
lfoot -37.578 58.1696
ltoes 21.3402
124
root 0.563931 17.4503 9.14047 10.2792 -3.3624 -8.89264
lowerback -1.63052 0.592497 6.97654
upperback -8.5572 1.15945 2.52915
thorax -8.03075 0.181268 -1.28293
lowerneck -9.74468 -4.96052 -4.90318
upperneck 20.5821 -7.82913 8.16497
head 8.51734 -3.32203 2.73729
rclavicle 8.15017e-015 -3.70733e-014
rhumerus -49.124 -12.2889 -76.9825
rradius 32.566
rwrist 29.6315
rhand 4.62763 -30.6715
rfingers 7.12502
rthumb 30.0147 -58.2561
lclavicle 8.15017e-015 -3.70733e-014
lhumerus -59.0406 6.13844 88.6003
lradius 60.5556
lwrist -9.17809
lhand -19.2088 -14.0853
lfingers 7.12502
lthumb 7.10362 15.7755
rfemur -5.16957 24.9337 25.0784
rtibia 2.25702
rfoot -11.482 -25.5518
rtoes 2.74736
lfemur 6.53748 -49.9146 -13.4518
ltibia -4.79758
lfoot -37.0928 58.0488
ltoes 21.1565
125
root 0.560777 17.4502 9.14269 10.1811 -3.33296 -8.88699
lowerback -1.67812 0.572762 6.95626
upperback -8.5337 1.12606 2.52642
thorax -7.97928 0.168011 -1.27275
lowerneck -9.66765 -4.79329 -4.77347
upperneck 20.7308 -7.62514 8.13209
head 8.53156 -3.21798 2.7304
rclavicle -4.60932e-015 4.12478e-014
rhumerus -49.4588 -11.7471 -77.4489
rradius 33.4252
rwrist 28.6242
rhand 4.61492 -30.8411
rfingers 7.12502
rthumb 30.0026 -58.4279
lclavicle -4.60932e-015 4.12478e-014
lhumerus -59.8401 5.57048 89.48
lradius 64.295
lwrist -8.65224
lhand -19.1806 -15.6174
lfingers 7.12502
lthumb 7.13079 14.2424
rfemur -5.15813 24.82 25.1416
rtibia 2.49491
rfoot -11.6567 -25.4466
rtoes 2.59471
lfemur 6.63438 -49.714 -13.5111
ltibia -4.78998
lfoot -36.7029 57.9108
ltoes 20.9311
126
root 0.557741 17.451 9.14457 10.05 -3.33624 -8.81607
lowerback -1.71715 0.549881 6.85885
upperback -8.48731 1.08524 2.51713
thorax -7.90763 0.157142 -1.22685
lowerneck -9.70375 -4.64328 -4.6174
upperneck 21.0781 -7.43648 7.97971
head 8.62985 -3.12362 2.67575
rclavicle -5.49143e-015 -1.08338e-014
rhumerus -49.7404 -11.295 -77.8431
rradius 34.1802
rwrist 27.8518
rhand 4.6869 -30.9647
rfingers 7.12502
rthumb 30.0713 -58.539
lclavicle -5.49143e-015 -1.08338e-014
lhumerus -60.372 5.01773 90.3711
lradius 67.881
lwrist -7.3478
lhand -18.8701 -17.6102
lfingers 7.12502
lthumb 7.43057 12.2393
rfemur -5.15265 24.5191 25.1197
rtibia 2.77761
rfoot -11.826 -25.1186
rtoes 2.62699
lfemur 6.77142 -49.5512 -13.714
ltibia -4.71682
lfoot -36.5827 57.7406
ltoes 20.7666
127
root 0.555004 17.4513 9.14502 9.9033 -3.3347 -8.70689
lowerback -1.76795 0.52787 6.7098
upperback -8.41782 1.04171 2.50528
thorax -7.80358 0.149623 -1.15516
lowerneck -9.77721 -4.52928 -4.36031
upperneck 21.4915 -7.27597 7.63215
head 8.74935 -3.05149 2.53424
rclavicle 8.49804e-015 -1.95803e-014
rhumerus -49.9592 -10.9289 -78.174
rradius 34.8108
rwrist 27.3083
rhand 4.84187 -31.0823
rfingers 7.12502
rthumb 30.2191 -58.6297
lclavicle 8.49804e-015 -1.95803e-014
lhumerus -60.6373 4.35424 91.3375
lradius 71.5701
lwrist -5.78025
lhand -17.932 -18.5873
lfingers 7.12502
lthumb 8.33593 11.2282
rfemur -5.13567 24.1516 25.0478
rtibia 3.03766
rfoot -11.9433 -24.7357
rtoes 2.67009
lfemur 6.88519 -49.3379 -13.9509
ltibia -4.62487
lfoot -36.4547 57.5061
ltoes 20.6605
128
root 0.551219 17.4502 9.14317 9.80748 -3.2569 -8.66349
lowerback -1.8655 0.507272 6.60927
upperback -8.37344 0.999891 2.50784
thorax -7.70038 0.139629 -1.09468
lowerneck -9.79556 -4.38561 -4.05138
upperneck 21.8782 -7.07977 7.28025
head 8.8467 -2.96095 2.38722
rclavicle -2.36057e-015 -2.09718e-014
rhumerus -50.1618 -10.5806 -78.497
rradius 35.3753
rwrist 26.8005
rhand 4.93126 -31.1795
rfingers 7.12502
rthumb 30.3044 -58.7113
lclavicle -2.36057e-015 -2.09718e-014
lhumerus -60.6276 3.53154 92.332
lradius 75.2728
lwrist -4.25563
lhand -16.5784 -18.5266
lfingers 7.12502
lthumb 9.64211 11.2328
rfemur -5.1431 23.8743 25.0458
rtibia 3.22463
rfoot -11.998 -24.5133
rtoes 2.53824
lfemur 6.82547 -49.0205 -13.9358
ltibia -4.56678
lfoot -36.0766 57.1843
ltoes 20.6361
129
root 0.546577 17.4497 9.14222 9.66364 -3.16998 -8.7059
lowerback -1.95043 0.4913 6.58625
upperback -8.30122 0.968371 2.54927
thorax -7.57439 0.131998 -1.03711
lowerneck -9.7524 -4.33222 -4.00876
upperneck 22.0428 -7.00507 7.19061
head 8.88518 -2.92912 2.35999
rclavicle -2.39784e-015 -3.16068e-014
rhumerus -50.3103 -10.1801 -78.8096
rradius 35.897
rwrist 26.2907
rhand 5.04275 -31.2084
rfingers 7.12502
rthumb 30.4107 -58.7205
lclavicle -2.39784e-015 -3.16068e-014
lhumerus -60.2556 2.62845 93.325
lradius 78.7373
lwrist -2.79884
lhand -15.3868 -18.216
lfingers 7.12502
lthumb 10.7917 11.4867
rfemur -5.07314 23.7034 25.1715
rtibia 3.39329
rfoot -12.1174 -24.3941
rtoes 2.71522
lfemur 6.85291 -48.69 -13.8727
ltibia -4.5402
lfoot -35.4175 56.9381
ltoes 20.4023
130
root 0.541481 17.4491 9.14139 9.4311 -3.05873 -8.75728
lowerback -1.94878 0.454779 6.56695
upperback -8.20946 0.917872 2.61677
thorax -7.47921 0.115197 -0.954211
lowerneck -9.77574 -4.25879 -4.00561
upperneck 22.4191 -6.91386 7.11969
head 9.01024 -2.88544 2.34779
rclavicle 1.63252e-014 -4.20927e-014
rhumerus -50.5004 -9.78525 -79.0785
rradius 36.4388
rwrist 25.9122
rhand 5.16254 -31.1537
rfingers 7.12502
rthumb 30.525 -58.6446
lclavicle 1.63252e-014 -4.20927e-014
lhumerus -59.5774 1.68756 94.2929
lradius 81.9651
lwrist -1.35072
lhand -14.52 -18.1156
lfingers 7.12502
lthumb 11.6276 11.5418
rfemur -4.90302 23.5263 25.3483
rtibia 3.57705
rfoot -12.2698 -24.3156
rtoes 3.21766
lfemur 7.04033 -48.3993 -13.9174
ltibia -4.52351
lfoot -34.5721 56.7448
ltoes 19.8489
131
root 0.536172 17.4483 9.13809 9.23018 -2.82574 -8.79655
lowerback -1.91054 0.363083 6.52087
upperback -8.18127 0.800681 2.69431
thorax -7.47932 0.0639936 -0.842444
lowerneck -9.82227 -4.13671 -3.87135
upperneck 23.0188 -6.78881 7.0193
head 9.21031 -2.81345 2.30872
rclavicle -7.06307e-015 -2.6339e-015
rhumerus -50.7181 -9.38765 -79.341
rradius 36.9481
rwrist 25.6164
rhand 5.22321 -31.116
rfingers 7.12502
rthumb 30.5828 -58.5962
lclavicle -7.06307e-015 -2.6339e-015
lhumerus -58.697 0.753495 95.1413
lradius 84.9764
lwrist 0.160708
lhand -13.498 -18.353
lfingers 7.12502
lthumb 12.6131 11.2462
rfemur -4.74798 23.3067 25.51
rtibia 3.72793
rfoot -12.3794 -24.3227
rtoes 3.34746
lfemur 7.00083 -47.9184 -13.7761
ltibia -4.48123
lfoot -33.3354 56.3321
ltoes 19.0645
